<?xml version="1.0" standalone="no"?><!DOCTYPE svg PUBLIC "-//W3C//DTD SVG 1.1//EN" "http://www.w3.org/Graphics/SVG/1.1/DTD/svg11.dtd"><svg t="1584973214063" class="icon" viewBox="0 0 1024 1024" version="1.1" xmlns="http://www.w3.org/2000/svg" p-id="2657" xmlns:xlink="http://www.w3.org/1999/xlink" width="200" height="200"><defs><style type="text/css"></style></defs><path d="M504.746667 73.813333c-145.066667 2.56-238.933333 67.84-238.933334 67.84-11.946667 7.68-14.933333 25.173333-6.826666 37.12 8.533333 13.226667 25.173333 15.36 37.973333 6.4 0 0 183.893333-136.106667 448 1.706667 12.373333 7.253333 29.013333 2.986667 36.266667-9.813333 8.106667-12.8 2.56-29.013333-11.946667-37.12-71.253333-37.546667-138.666667-56.32-199.253333-63.146667-22.613333-2.56-44.373333-3.413333-65.28-2.986667m16.64 111.36c-254.293333-3.413333-375.893333 200.96-375.893334 200.96-8.106667 12.373333-4.693333 28.586667 7.253334 36.693334 12.373333 8.106667 29.013333 3.84 39.253333-9.813334 0 0 103.253333-178.346667 328.533333-174.506666 226.133333 2.986667 325.12 173.226667 325.12 173.226666 7.68 12.373333 23.893333 16.64 36.693334 9.386667 13.653333-7.68 16.64-23.893333 9.386666-37.12 0 0-117.333333-195.413333-370.346666-198.826667m-30.72 105.813334c-71.68 5.12-140.373333 31.146667-192 74.24C197.12 449.28 132.266667 603.306667 203.52 810.666667c4.693333 14.08 20.053333 21.333333 34.133333 16.64 13.653333-4.693333 21.333333-20.053333 16.213334-33.706667-65.706667-190.72-7.253333-315.733333 78.933333-388.266667 84.053333-68.693333 232.533333-85.333333 343.04-17.066666 54.186667 34.133333 96.426667 93.013333 117.76 151.04 21.76 58.026667 20.48 114.346667 2.986667 140.8-17.92 27.733333-54.186667 37.973333-86.186667 29.866666-32-8.106667-58.026667-31.146667-59.306667-79.786666-1.28-72.96-58.453333-118.186667-117.76-125.013334-57.173333-6.826667-123.306667 23.893333-140.373333 92.16-32.426667 124.586667 49.066667 301.653333 237.653333 360.533334 14.08 4.266667 29.013333-3.413333 33.706667-17.493334 4.266667-14.08-2.986667-29.44-17.92-33.706666-163.413333-50.773333-225.28-205.653333-201.813333-296.96 10.24-40.96 46.08-55.04 83.626666-51.626667 37.12 4.266667 69.12 26.453333 69.12 72.96 2.133333 69.973333 47.786667 117.333333 99.84 130.56 52.053333 13.226667 112.213333-3.413333 144.213334-52.48 33.28-49.92 27.733333-120.32 2.56-188.16-25.6-68.266667-72.96-135.68-139.946667-177.92a355.84 355.84 0 0 0-213.333333-52.053333m15.36 103.68v0.426666c-75.946667 2.56-151.893333 41.813333-195.413334 124.586667-56.32 106.24-30.72 214.613333 6.826667 292.693333 37.973333 78.506667 89.6 130.56 89.6 130.56 10.24 10.666667 26.88 10.666667 37.546667 0.426667s10.666667-26.026667 0.426666-37.546667c0 0-45.653333-46.933333-79.36-116.48s-54.186667-157.44-8.106666-244.48c47.786667-89.6 133.12-111.36 208.213333-89.6 75.946667 22.186667 139.52 88.32 138.24 186.026667-1.706667 14.933333 8.96 27.733333 23.893333 28.586667 14.506667 1.28 27.306667-9.813333 28.586667-27.306667 2.56-122.026667-79.36-210.346667-175.786667-238.506667a245.76 245.76 0 0 0-74.666666-9.386666m9.386666 213.333333c-14.933333 0.426667-26.453333 12.8-26.026666 27.306667 0 0 1.28 63.146667 35.84 124.16 35.84 61.013333 111.786667 119.04 244.053333 106.666666 14.506667-0.853333 26.026667-12.8 25.173333-28.16-0.853333-14.933333-13.653333-26.026667-30.293333-24.746666-116.053333 10.666667-165.12-33.28-192.853333-80.64-27.733333-46.933333-28.586667-97.706667-28.586667-97.706667a26.88 26.88 0 0 0-27.306667-26.88z" fill="#ffffff" p-id="2658"></path></svg>